<svg width="551" height="551" viewBox="0 0 551 551" fill="none" xmlns="http://www.w3.org/2000/svg">
<path d="M525.406 177.245C550.599 191.493 558.47 224.089 542.553 248.263L514.014 291.609C506.076 303.665 503.736 318.565 507.596 332.475L521.473 382.482C529.213 410.371 511.729 438.985 483.381 444.824L432.551 455.294C418.412 458.206 406.222 467.087 399.116 479.652L373.568 524.826C359.32 550.019 326.724 557.889 302.55 541.973L259.205 513.434C247.148 505.495 232.249 503.155 218.339 507.015L168.331 520.893C140.442 528.632 111.828 511.149 105.989 482.801L95.5195 431.971C92.6073 417.832 83.7265 405.642 71.1612 398.535L25.9878 372.988C0.794652 358.74 -7.0757 326.144 8.84052 301.97L37.3797 258.624C45.318 246.568 47.6581 231.668 43.798 217.758L29.9204 167.751C22.181 139.862 39.6648 111.248 68.0127 105.409L118.843 94.939C132.982 92.0268 145.172 83.146 152.278 70.5808L177.826 25.4073C192.073 0.214183 224.67 -7.65617 248.843 8.26005L292.189 36.7992C304.246 44.7376 319.145 47.0776 333.055 43.2175L383.063 29.3399C410.952 21.6005 439.566 39.0844 445.405 67.4322L455.874 118.262C458.787 132.401 467.667 144.591 480.233 151.697L525.406 177.245Z" fill="#FF6827"/>
</svg>
