<svg width="193" height="29" fill="none" xmlns="http://www.w3.org/2000/svg"><mask id="mask0_439_8955" style="mask-type:luminance" maskUnits="userSpaceOnUse" x="0" y="0" width="193" height="29"><path d="M0 28.495h193V.344H0v28.15z" fill="#fff"/></mask><g mask="url(#mask0_439_8955)"><path d="M24.17 21.993l-2.742-1.506a.747.747 0 00-.98.236 7.858 7.858 0 01-2.738 2.47 7.544 7.544 0 01-3.713.945 9.26 9.26 0 01-3.644-.713 8.711 8.711 0 01-2.902-1.993 9.276 9.276 0 01-1.93-3.077 10.808 10.808 0 01-.702-3.94 10.757 10.757 0 01.702-3.957 9.313 9.313 0 011.93-3.06 8.727 8.727 0 012.902-1.993 9.268 9.268 0 013.644-.713 7.434 7.434 0 013.707.965 8.22 8.22 0 012.75 2.46.745.745 0 00.978.229l2.7-1.506a.748.748 0 00.244-1.087 14.495 14.495 0 00-1.853-2.119 12.402 12.402 0 00-2.345-1.727A11.954 11.954 0 0017.335.753a13.012 13.012 0 00-3.34-.405A14.682 14.682 0 008.52 1.367 13.497 13.497 0 004.068 4.25 13.408 13.408 0 001.08 8.705 14.762 14.762 0 000 14.42a14.755 14.755 0 001.08 5.715 13.39 13.39 0 002.987 4.454 13.462 13.462 0 004.453 2.883 14.675 14.675 0 005.474 1.019 11.756 11.756 0 006.209-1.558 14.722 14.722 0 004.21-3.846.746.746 0 00-.24-1.097M50.21 4.386a12.585 12.585 0 00-4.29-2.979A13.981 13.981 0 0040.41.343a13.965 13.965 0 00-5.507 1.065 12.577 12.577 0 00-4.29 2.978 13.567 13.567 0 00-2.76 4.474 15.55 15.55 0 00-.983 5.559 15.55 15.55 0 00.982 5.566 13.568 13.568 0 002.76 4.475 12.573 12.573 0 004.29 2.978 13.989 13.989 0 005.507 1.063 13.97 13.97 0 005.51-1.065 12.575 12.575 0 004.289-2.977 13.58 13.58 0 002.761-4.474c.662-1.778.992-3.662.976-5.56a15.543 15.543 0 00-.976-5.565 13.57 13.57 0 00-2.76-4.474zm-9.8 19.757a8.753 8.753 0 01-3.614-.726 7.943 7.943 0 01-2.74-2.014 9.083 9.083 0 01-1.754-3.073 12.01 12.01 0 01-.617-3.914 12.174 12.174 0 01.617-3.931 8.865 8.865 0 011.744-3.067 8.098 8.098 0 012.749-1.996 8.764 8.764 0 013.614-.726 8.615 8.615 0 013.593.725 8.124 8.124 0 012.726 1.999 9.136 9.136 0 011.766 3.073c.43 1.264.645 2.59.634 3.926a11.706 11.706 0 01-.633 3.904 9.38 9.38 0 01-1.77 3.079 7.994 7.994 0 01-2.723 2.015 8.607 8.607 0 01-3.593.725M79.65.769h-3.208a.746.746 0 00-.747.748v10.34h-13.57V1.516a.747.747 0 00-.75-.748h-3.207a.746.746 0 00-.746.748v25.768a.746.746 0 00.746.747h3.207a.747.747 0 00.748-.747V16.21h13.573v11.075a.746.746 0 00.748.747h3.207a.747.747 0 00.747-.747V1.517a.749.749 0 00-.749-.748zm23.924 4.352a.747.747 0 00.748-.747V1.517a.749.749 0 00-.748-.748H85.489a.746.746 0 00-.746.748v25.768a.748.748 0 00.746.748h18.085a.747.747 0 00.748-.748v-2.86a.747.747 0 00-.748-.746H89.45v-7.392h13.258a.75.75 0 00.748-.748v-2.858a.752.752 0 00-.748-.746H89.45V5.12h14.124zm36.216 22.164V1.517a.759.759 0 00-.218-.53.75.75 0 00-.53-.218h-3.205a.75.75 0 00-.748.748v25.768a.749.749 0 00.748.748h3.207a.747.747 0 00.746-.748zM164.896.769h-20.701a.749.749 0 00-.746.748v2.858a.758.758 0 00.218.529.748.748 0 00.528.219h7.997v22.162a.739.739 0 00.219.529.747.747 0 00.528.218h3.213a.744.744 0 00.746-.747V5.121h7.998a.749.749 0 00.748-.747V1.517a.749.749 0 00-.748-.748zm28.018.398a.749.749 0 00-.662-.398h-3.748a.75.75 0 00-.62.332l-7.375 11.044-7.374-11.044a.756.756 0 00-.621-.332h-3.748a.75.75 0 00-.66.398.747.747 0 00.043.77l9.987 14.683v10.663a.749.749 0 00.748.747h3.239a.748.748 0 00.747-.747V16.62l9.997-14.684a.754.754 0 00.043-.769" fill="#fff"/><path d="M128.286 4.249l.766-2.595a.68.68 0 00-.108-.609.698.698 0 00-.553-.277h-10.745a9.891 9.891 0 00-9.488 6.536 9.906 9.906 0 00-.564 4.03 9.791 9.791 0 009.739 8.983h3.724a2.088 2.088 0 002.076-1.62 2.036 2.036 0 00-2-2.443h-3.578a5.858 5.858 0 01-5.921-5.34 5.714 5.714 0 015.695-6.074l10.189-.02a.79.79 0 00.758-.568" fill="#67BF1B"/><path d="M121.236 8.477h-3.746a2.07 2.07 0 00-2.049 1.607 2.036 2.036 0 001.993 2.462h3.602a5.84 5.84 0 015.894 5.317 5.707 5.707 0 01-5.694 6.1h-10.305a.654.654 0 00-.626.468l-.81 2.745a.672.672 0 00.344.783.677.677 0 00.297.073h10.838a9.987 9.987 0 0010.04-9.945 9.79 9.79 0 00-9.778-9.61z" fill="#67BF1B"/></g></svg>